<svg width="390" height="81" viewBox="0 0 390 81" fill="none" xmlns="http://www.w3.org/2000/svg">
<g filter="url(#filter0_i)">
<path d="M42.457 56.8594C42.457 56.8594 34.4414 57.082 18.4102 57.5273L19.1484 33.4805C19.3359 27.668 19.5117 23.1914 19.6758 20.0508H0.480469C0.527344 19.0664 0.703125 16.9687 1.00781 13.7578C1.3125 10.5469 1.59375 8.12109 1.85156 6.48047C23.5781 6.19922 38.6719 6.05859 47.1328 6.05859C55.6172 6.05859 61.418 6.09375 64.5352 6.16406C63.8086 12.3984 62.9766 17.0273 62.0391 20.0508H43.7227L43.5117 27.6445C42.7852 44.6836 42.4219 53.8125 42.4219 55.0312C42.4219 56.2266 42.4336 56.8359 42.457 56.8594ZM74.6602 57.3164L71.1797 57.3867C71.0391 56.3086 70.9688 55.5234 70.9688 55.0312C70.9688 55.0312 71.4023 44.4492 72.2695 23.2852L82.0078 21.2109L86.0859 28.2773C90.5391 22.5352 95.0039 19.6641 99.4805 19.6641C101.332 19.6641 103.242 20.0391 105.211 20.7891C107.203 21.5391 108.516 22.3359 109.148 23.1797L105.457 33.375C102.855 32.2969 100.312 31.7578 97.8281 31.7578C95.3438 31.7578 93.3047 32.4609 91.7109 33.8672C91.6172 33.9609 91.5234 34.0312 91.4297 34.0781L91.3594 34.1836L89.8828 56.5781L74.6602 57.3164ZM136.254 56.9648C126.246 57.1055 119.449 57.0703 115.863 56.8594C115.863 55.4531 116.086 49.7578 116.531 39.7734C116.977 29.7891 117.316 23.6953 117.551 21.4922C123.246 21.1172 127.746 20.9297 131.051 20.9297C134.379 20.9297 136.605 20.9648 137.73 21.0352L136.254 56.9648ZM131.789 0.574219C134.625 0.574219 136.711 1.25391 138.047 2.61328C139.406 3.94922 140.086 5.56641 140.086 7.46484C140.086 9.36328 139.324 10.8984 137.801 12.0703C135.387 13.9453 131.871 14.8828 127.254 14.8828C122.637 14.8828 119.777 14.3203 118.676 13.1953C117.598 12.0703 117.059 10.6172 117.059 8.83594C117.035 7.05469 117.68 5.51953 118.992 4.23047C121.477 1.79297 125.742 0.574219 131.789 0.574219ZM159.422 53.8359C154.148 39.6562 149.953 29.0391 146.836 21.9844C158.953 21.4688 165.34 21.2109 165.996 21.2109C166.676 21.2109 167.039 21.2109 167.086 21.2109L168 24.375C170.156 31.6172 171.973 37.7578 173.449 42.7969C177.996 30.8906 180.867 23.7188 182.062 21.2812C183.117 21.2344 185.191 21.2109 188.285 21.2109C191.402 21.2109 195.668 21.3164 201.082 21.5273L198.34 26.625L182.59 57C175.465 57.2578 169.102 57.3867 163.5 57.3867L160.863 57.3164L159.422 53.8359ZM228.223 56.9648C218.215 57.1055 211.418 57.0703 207.832 56.8594C207.832 55.4531 208.055 49.7578 208.5 39.7734C208.945 29.7891 209.285 23.6953 209.52 21.4922C215.215 21.1172 219.715 20.9297 223.02 20.9297C226.348 20.9297 228.574 20.9648 229.699 21.0352L228.223 56.9648ZM223.758 0.574219C226.594 0.574219 228.68 1.25391 230.016 2.61328C231.375 3.94922 232.055 5.56641 232.055 7.46484C232.055 9.36328 231.293 10.8984 229.77 12.0703C227.355 13.9453 223.84 14.8828 219.223 14.8828C214.605 14.8828 211.746 14.3203 210.645 13.1953C209.566 12.0703 209.027 10.6172 209.027 8.83594C209.004 7.05469 209.648 5.51953 210.961 4.23047C213.445 1.79297 217.711 0.574219 223.758 0.574219ZM278.777 50.2148C277.301 52.6055 275.145 54.5508 272.309 56.0508C269.473 57.5508 266.344 58.3008 262.922 58.3008C259.5 58.3008 256.512 57.9375 253.957 57.2109C251.402 56.5078 249.035 55.4531 246.855 54.0469C244.699 52.6406 242.965 50.7422 241.652 48.3516C240.34 45.9609 239.684 43.1836 239.684 40.0195C239.684 36.832 240.27 33.9023 241.441 31.2305C242.637 28.5352 244.242 26.3438 246.258 24.6562C250.383 21.1406 255.41 19.3828 261.34 19.3828C265.441 19.3828 268.793 19.8984 271.395 20.9297C273.996 21.9609 276.293 23.8125 278.285 26.4844L278.355 18.9961L294.246 20.332L294.141 56.1562L280.922 57.1406L278.777 50.2148ZM262.324 33.8672C260.965 35.4375 260.285 37.3242 260.285 39.5273C260.285 41.707 260.953 43.6055 262.289 45.2227C263.625 46.8164 265.535 47.6133 268.02 47.6133C270.504 47.6133 272.426 46.9102 273.785 45.5039C275.168 44.0742 275.859 42.1172 275.859 39.6328C275.859 37.1484 275.168 35.168 273.785 33.6914C272.402 32.2148 270.48 31.4766 268.02 31.4766C265.582 31.4766 263.684 32.2734 262.324 33.8672ZM305.918 6.44531L326.695 5.46094C326.32 13.2891 325.934 22.793 325.535 33.9727C325.16 45.1289 324.891 52.8164 324.727 57.0352L304.195 57.5977L305.25 24.375C305.695 13.7578 305.918 7.78125 305.918 6.44531ZM353.801 62.0625L350.848 56.7539C348.879 53.2148 345.539 46.7461 340.828 37.3477C336.117 27.9492 333.48 22.7812 332.918 21.8438L353.449 20.9648L363.328 43.8516C363.773 42.6562 365.004 38.9414 367.02 32.707C369.059 26.4727 370.395 22.5703 371.027 21C371.871 20.9297 372.656 20.8945 373.383 20.8945C373.383 20.8945 378.668 21.0938 389.238 21.4922C386.777 27.3984 383.273 35.5547 378.727 45.9609C374.156 56.4141 371.531 62.2969 370.852 63.6094C369.094 67.0312 367.066 69.9609 364.77 72.3984C359.801 77.6953 352.969 80.3438 344.273 80.3438L338.191 70.5C339.598 70.5 341.684 69.9609 344.449 68.8828C349.77 66.7734 352.887 64.5 353.801 62.0625Z" fill="#556FB5"/>
</g>
<defs>
<filter id="filter0_i" x="0.480469" y="0.574219" width="388.758" height="83.7695" filterUnits="userSpaceOnUse" color-interpolation-filters="sRGB">
<feFlood flood-opacity="0" result="BackgroundImageFix"/>
<feBlend mode="normal" in="SourceGraphic" in2="BackgroundImageFix" result="shape"/>
<feColorMatrix in="SourceAlpha" type="matrix" values="0 0 0 0 0 0 0 0 0 0 0 0 0 0 0 0 0 0 127 0" result="hardAlpha"/>
<feOffset dy="4"/>
<feGaussianBlur stdDeviation="2"/>
<feComposite in2="hardAlpha" operator="arithmetic" k2="-1" k3="1"/>
<feColorMatrix type="matrix" values="0 0 0 0 0 0 0 0 0 0 0 0 0 0 0 0 0 0 0.25 0"/>
<feBlend mode="normal" in2="shape" result="effect1_innerShadow"/>
</filter>
</defs>
</svg>
